<svg width="36" height="42" viewBox="0 0 36 42" fill="none" xmlns="http://www.w3.org/2000/svg">
<g clip-path="url(#clip0_195_425)">
<path fill-rule="evenodd" clip-rule="evenodd" d="M0 4.76923C0 2.13576 2.15198 0 4.78635 0H25.4446L35.9998 10.5075V37.2308C35.9998 39.8642 33.8479 42 31.2135 42H4.78635C2.15198 42 0 39.8642 0 37.2308V4.76923ZM4.78635 2C3.248 2 2 3.24886 2 4.76923V37.2308C2 38.7511 3.248 40 4.78635 40H31.2135C32.7518 40 33.9998 38.7511 33.9998 37.2308V11.3386L24.6188 2H4.78635Z" fill="#009FE3"/>
<path fill-rule="evenodd" clip-rule="evenodd" d="M24.6475 0.0765832C25.0206 -0.0784627 25.4504 0.00626343 25.7368 0.291322L35.7049 10.2144C35.9918 10.5 36.0782 10.9305 35.9237 11.3047C35.7692 11.679 35.4043 11.9231 34.9994 11.9231H28.8176C26.1832 11.9231 24.0312 9.78735 24.0312 7.15387V1.00003C24.0312 0.595979 24.2744 0.231629 24.6475 0.0765832ZM26.0312 3.40653V7.15387C26.0312 8.67425 27.2793 9.9231 28.8176 9.9231H32.5774L26.0312 3.40653Z" fill="#009FE3"/>
<path fill-rule="evenodd" clip-rule="evenodd" d="M6.56641 18.5078C6.56641 17.9555 7.01412 17.5078 7.56641 17.5078H28.4299C28.9822 17.5078 29.4299 17.9555 29.4299 18.5078C29.4299 19.0601 28.9822 19.5078 28.4299 19.5078H7.56641C7.01412 19.5078 6.56641 19.0601 6.56641 18.5078Z" fill="#009FE3"/>
<path fill-rule="evenodd" clip-rule="evenodd" d="M7 14C7 13.4477 7.44772 13 8 13H10C10.5523 13 11 13.4477 11 14C11 14.5523 10.5523 15 10 15H8C7.44772 15 7 14.5523 7 14Z" fill="#009FE3"/>
<path fill-rule="evenodd" clip-rule="evenodd" d="M13 14C13 13.4477 13.4477 13 14 13H21C21.5523 13 22 13.4477 22 14C22 14.5523 21.5523 15 21 15H14C13.4477 15 13 14.5523 13 14Z" fill="#009FE3"/>
<path fill-rule="evenodd" clip-rule="evenodd" d="M17.3867 23.4922C17.3867 22.9399 17.8344 22.4922 18.3867 22.4922H20.7049C21.2572 22.4922 21.7049 22.9399 21.7049 23.4922C21.7049 24.0445 21.2572 24.4922 20.7049 24.4922H18.3867C17.8344 24.4922 17.3867 24.0445 17.3867 23.4922Z" fill="#009FE3"/>
<path fill-rule="evenodd" clip-rule="evenodd" d="M6.56641 23.4922C6.56641 22.9399 7.01412 22.4922 7.56641 22.4922H14.5209C15.0732 22.4922 15.5209 22.9399 15.5209 23.4922C15.5209 24.0445 15.0732 24.4922 14.5209 24.4922H7.56641C7.01412 24.4922 6.56641 24.0445 6.56641 23.4922Z" fill="#009FE3"/>
<path fill-rule="evenodd" clip-rule="evenodd" d="M6.56641 28.4766C6.56641 27.9243 7.01412 27.4766 7.56641 27.4766H28.4299C28.9822 27.4766 29.4299 27.9243 29.4299 28.4766C29.4299 29.0288 28.9822 29.4766 28.4299 29.4766H7.56641C7.01412 29.4766 6.56641 29.0288 6.56641 28.4766Z" fill="#009FE3"/>
</g>
<defs>
<clipPath id="clip0_195_425">
<rect width="36" height="42" fill="white"/>
</clipPath>
</defs>
</svg>
