<svg width="40" height="46" viewBox="0 0 40 46" fill="none" xmlns="http://www.w3.org/2000/svg">
<path fill-rule="evenodd" clip-rule="evenodd" d="M36 5.29688H4C2.89543 5.29688 2 6.1923 2 7.29687V41.058C2 42.1626 2.89543 43.058 4 43.058H36C37.1046 43.058 38 42.1626 38 41.058V7.29688C38 6.19231 37.1046 5.29688 36 5.29688ZM4 3.29688C1.79086 3.29688 0 5.08773 0 7.29687V41.058C0 43.2672 1.79086 45.058 4 45.058H36C38.2091 45.058 40 43.2672 40 41.058V7.29688C40 5.08774 38.2091 3.29688 36 3.29688H4Z" fill="#009FE3"/>
<path fill-rule="evenodd" clip-rule="evenodd" d="M39.2165 15.4258H0.785156V13.4258H39.2165V15.4258Z" fill="#009FE3"/>
<path fill-rule="evenodd" clip-rule="evenodd" d="M29.8047 0.0976562C30.357 0.0976562 30.8047 0.545371 30.8047 1.09766V8.15344C30.8047 8.70573 30.357 9.15344 29.8047 9.15344C29.2524 9.15344 28.8047 8.70573 28.8047 8.15344V1.09766C28.8047 0.545371 29.2524 0.0976562 29.8047 0.0976562Z" fill="#009FE3"/>
<path d="M29.8042 11.6029C30.8438 11.6029 31.6866 10.7605 31.6866 9.72137C31.6866 8.68223 30.8438 7.83984 29.8042 7.83984C28.7646 7.83984 27.9219 8.68223 27.9219 9.72137C27.9219 10.7605 28.7646 11.6029 29.8042 11.6029Z" fill="#009FE3"/>
<path fill-rule="evenodd" clip-rule="evenodd" d="M10.9805 0.0976562C11.5328 0.0976562 11.9805 0.545371 11.9805 1.09766V8.15344C11.9805 8.70573 11.5328 9.15344 10.9805 9.15344C10.4282 9.15344 9.98047 8.70573 9.98047 8.15344V1.09766C9.98047 0.545371 10.4282 0.0976562 10.9805 0.0976562Z" fill="#009FE3"/>
<path d="M10.98 11.6029C12.0196 11.6029 12.8624 10.7605 12.8624 9.72137C12.8624 8.68223 12.0196 7.83984 10.98 7.83984C9.94042 7.83984 9.09766 8.68223 9.09766 9.72137C9.09766 10.7605 9.94042 11.6029 10.98 11.6029Z" fill="#009FE3"/>
<path d="M17.6098 34.4965H20.0938L25.7818 23.5705V21.8965H16.9258V23.8405H23.2618L17.6098 34.4965Z" fill="#009FE3"/>
</svg>
