<svg width="46" height="41" viewBox="0 0 46 41" fill="none" xmlns="http://www.w3.org/2000/svg">
<path fill-rule="evenodd" clip-rule="evenodd" d="M23.0672 40.2721C13.2579 40.2721 5.15069 33.3818 3.35547 24.2887L5.31759 23.9014C6.92794 32.058 14.2139 38.2721 23.0672 38.2721C31.9205 38.2721 39.2064 32.058 40.8168 23.9014L42.7789 24.2887C40.9837 33.3818 32.8764 40.2721 23.0672 40.2721Z" fill="#009FE3"/>
<path fill-rule="evenodd" clip-rule="evenodd" d="M3.28516 17.0251C5.00906 7.78856 13.259 0.831055 23.0669 0.831055C32.8734 0.831055 41.1285 7.78823 42.782 17.0326L40.8132 17.3847C39.3335 9.11196 31.9231 2.83105 23.0669 2.83105C14.2124 2.83105 6.79666 9.11163 5.25121 17.3921L3.28516 17.0251Z" fill="#009FE3"/>
<path fill-rule="evenodd" clip-rule="evenodd" d="M41.7255 16.8075L43.5752 13.3896L45.3342 14.3416L42.5524 19.4816L37.3906 16.8276L38.3052 15.0489L41.7255 16.8075Z" fill="#009FE3"/>
<path fill-rule="evenodd" clip-rule="evenodd" d="M3.42954 21.8945L8.59676 24.4709L7.70434 26.2608L4.28953 24.5581L2.49715 27.9704L0.726562 27.0403L3.42954 21.8945Z" fill="#009FE3"/>
<path fill-rule="evenodd" clip-rule="evenodd" d="M32.0813 16.9173L21.9814 26.9034L16.7148 21.7337L18.1159 20.3064L21.9763 24.0959L30.6751 15.4951L32.0813 16.9173Z" fill="#009FE3"/>
</svg>
